<?xml version="1.0" encoding="UTF-8"?>
<svg xmlns="http://www.w3.org/2000/svg" xmlns:xlink="http://www.w3.org/1999/xlink" width="50pt" height="50pt" viewBox="0 0 50 50" version="1.1">
<g id="surface21036485">
<path style=" stroke:none;fill-rule:evenodd;fill:rgb(100%,100%,100%);fill-opacity:1;" d="M 25 6.25 C 14.640625 6.25 6.25 14.640625 6.25 25 C 6.25 33.28125 11.621094 40.3125 19.074219 42.792969 C 20.011719 42.960938 20.355469 42.390625 20.355469 41.886719 C 20.355469 41.441406 20.335938 40.265625 20.332031 38.703125 C 15.113281 39.832031 14.011719 36.1875 14.011719 36.1875 C 13.160156 34.019531 11.933594 33.441406 11.933594 33.441406 C 10.230469 32.28125 12.058594 32.304688 12.058594 32.304688 C 13.941406 32.441406 14.929688 34.234375 14.929688 34.234375 C 16.601562 37.101562 19.316406 36.273438 20.386719 35.796875 C 20.558594 34.582031 21.046875 33.757812 21.574219 33.289062 C 17.414062 32.820312 13.039062 31.207031 13.039062 24.023438 C 13.039062 21.972656 13.769531 20.300781 14.964844 18.988281 C 14.777344 18.519531 14.128906 16.609375 15.148438 14.027344 C 15.148438 14.027344 16.722656 13.527344 20.304688 15.949219 C 21.800781 15.535156 23.40625 15.324219 25 15.320312 C 26.59375 15.324219 28.199219 15.535156 29.695312 15.949219 C 33.277344 13.527344 34.84375 14.027344 34.84375 14.027344 C 35.871094 16.609375 35.230469 18.519531 35.035156 18.988281 C 36.238281 20.300781 36.957031 21.972656 36.957031 24.023438 C 36.957031 31.226562 32.574219 32.804688 28.398438 33.277344 C 29.070312 33.851562 29.667969 34.996094 29.667969 36.742188 C 29.667969 39.25 29.652344 41.273438 29.652344 41.886719 C 29.652344 42.390625 29.988281 42.976562 30.9375 42.792969 C 38.386719 40.308594 43.75 33.28125 43.75 25 C 43.75 14.640625 35.359375 6.25 25 6.25 Z M 25 6.25 "/>
</g>
</svg>
