<?xml version="1.0" encoding="UTF-8"?>
<svg xmlns="http://www.w3.org/2000/svg" xmlns:xlink="http://www.w3.org/1999/xlink" width="50pt" height="50pt" viewBox="0 0 50 50" version="1.1">
<g id="surface16299297">
<path style=" stroke:none;fill-rule:nonzero;fill:rgb(100%,100%,100%);fill-opacity:1;" d="M 5.46875 6.25 C 3.3125 6.25 1.5625 8 1.5625 10.15625 L 1.5625 36.71875 C 1.5625 38.875 3.3125 40.625 5.46875 40.625 L 44.53125 40.625 C 46.6875 40.625 48.4375 38.875 48.4375 36.71875 L 48.4375 10.15625 C 48.4375 8 46.6875 6.25 44.53125 6.25 Z M 6.914062 7.8125 L 43.085938 7.8125 L 25.457031 20.582031 C 25.183594 20.78125 24.8125 20.78125 24.539062 20.582031 Z M 4.527344 8.015625 L 23.625 21.84375 C 24.035156 22.144531 24.519531 22.289062 25 22.289062 C 25.480469 22.289062 25.964844 22.144531 26.375 21.84375 L 45.472656 8.015625 C 46.296875 8.378906 46.875 9.199219 46.875 10.15625 L 46.875 36.71875 C 46.875 38.007812 45.820312 39.0625 44.53125 39.0625 L 42.1875 39.0625 L 42.1875 17.027344 C 42.1875 16.734375 42.023438 16.464844 41.761719 16.328125 C 41.5 16.195312 41.1875 16.21875 40.949219 16.394531 L 25.457031 27.613281 C 25.183594 27.8125 24.8125 27.8125 24.539062 27.613281 L 9.054688 16.394531 C 8.816406 16.21875 8.503906 16.195312 8.238281 16.328125 C 7.976562 16.464844 7.8125 16.734375 7.8125 17.027344 L 7.8125 39.0625 L 5.46875 39.0625 C 4.179688 39.0625 3.125 38.007812 3.125 36.71875 L 3.125 10.15625 C 3.125 9.199219 3.703125 8.378906 4.527344 8.015625 Z M 40.625 18.554688 L 40.625 34.375 C 40.195312 34.375 39.84375 34.722656 39.84375 35.15625 L 39.84375 36.71875 C 39.84375 37.152344 40.195312 37.5 40.625 37.5 L 40.625 39.0625 L 9.375 39.0625 L 9.375 37.5 C 9.804688 37.5 10.15625 37.152344 10.15625 36.71875 L 10.15625 35.15625 C 10.15625 34.722656 9.804688 34.375 9.375 34.375 L 9.375 18.558594 L 23.625 28.875 C 24.449219 29.472656 25.550781 29.472656 26.375 28.875 Z M 13.28125 34.375 C 12.851562 34.375 12.5 34.722656 12.5 35.15625 L 12.5 36.71875 C 12.5 37.152344 12.851562 37.5 13.28125 37.5 C 13.710938 37.5 14.0625 37.152344 14.0625 36.71875 L 14.0625 35.15625 C 14.0625 34.722656 13.710938 34.375 13.28125 34.375 Z M 17.1875 34.375 C 16.757812 34.375 16.40625 34.722656 16.40625 35.15625 L 16.40625 36.71875 C 16.40625 37.152344 16.757812 37.5 17.1875 37.5 C 17.617188 37.5 17.96875 37.152344 17.96875 36.71875 L 17.96875 35.15625 C 17.96875 34.722656 17.617188 34.375 17.1875 34.375 Z M 21.09375 34.375 C 20.664062 34.375 20.3125 34.722656 20.3125 35.15625 L 20.3125 36.71875 C 20.3125 37.152344 20.664062 37.5 21.09375 37.5 C 21.523438 37.5 21.875 37.152344 21.875 36.71875 L 21.875 35.15625 C 21.875 34.722656 21.523438 34.375 21.09375 34.375 Z M 25 34.375 C 24.570312 34.375 24.21875 34.722656 24.21875 35.15625 L 24.21875 36.71875 C 24.21875 37.152344 24.570312 37.5 25 37.5 C 25.429688 37.5 25.78125 37.152344 25.78125 36.71875 L 25.78125 35.15625 C 25.78125 34.722656 25.429688 34.375 25 34.375 Z M 28.90625 34.375 C 28.476562 34.375 28.125 34.722656 28.125 35.15625 L 28.125 36.71875 C 28.125 37.152344 28.476562 37.5 28.90625 37.5 C 29.335938 37.5 29.6875 37.152344 29.6875 36.71875 L 29.6875 35.15625 C 29.6875 34.722656 29.335938 34.375 28.90625 34.375 Z M 32.8125 34.375 C 32.382812 34.375 32.03125 34.722656 32.03125 35.15625 L 32.03125 36.71875 C 32.03125 37.152344 32.382812 37.5 32.8125 37.5 C 33.242188 37.5 33.59375 37.152344 33.59375 36.71875 L 33.59375 35.15625 C 33.59375 34.722656 33.242188 34.375 32.8125 34.375 Z M 36.71875 34.375 C 36.289062 34.375 35.9375 34.722656 35.9375 35.15625 L 35.9375 36.71875 C 35.9375 37.152344 36.289062 37.5 36.71875 37.5 C 37.148438 37.5 37.5 37.152344 37.5 36.71875 L 37.5 35.15625 C 37.5 34.722656 37.148438 34.375 36.71875 34.375 Z M 36.71875 34.375 "/>
</g>
</svg>
