<?xml version="1.0" encoding="UTF-8"?>
<svg xmlns="http://www.w3.org/2000/svg" xmlns:xlink="http://www.w3.org/1999/xlink" width="80pt" height="80pt" viewBox="0 0 80 80" version="1.1">
<g id="surface16300482">
<path style=" stroke:none;fill-rule:nonzero;fill:rgb(100%,100%,100%);fill-opacity:1;" d="M 27.5 8.332031 C 16.945312 8.332031 8.332031 16.945312 8.332031 27.5 L 8.332031 52.5 C 8.332031 63.054688 16.945312 71.667969 27.5 71.667969 L 52.5 71.667969 C 63.054688 71.667969 71.667969 63.054688 71.667969 52.5 L 71.667969 27.5 C 71.667969 16.945312 63.054688 8.332031 52.5 8.332031 Z M 27.5 13.332031 L 52.5 13.332031 C 60.351562 13.332031 66.667969 19.644531 66.667969 27.5 L 66.667969 52.5 C 66.667969 60.351562 60.351562 66.667969 52.5 66.667969 L 27.5 66.667969 C 19.644531 66.667969 13.332031 60.351562 13.332031 52.5 L 13.332031 27.5 C 13.332031 19.644531 19.644531 13.332031 27.5 13.332031 Z M 56.667969 20 C 54.824219 20 53.332031 21.492188 53.332031 23.332031 C 53.332031 25.175781 54.824219 26.667969 56.667969 26.667969 C 58.507812 26.667969 60 25.175781 60 23.332031 C 60 21.492188 58.507812 20 56.667969 20 Z M 40 23.332031 C 30.824219 23.332031 23.332031 30.824219 23.332031 40 C 23.332031 49.175781 30.824219 56.667969 40 56.667969 C 49.175781 56.667969 56.667969 49.175781 56.667969 40 C 56.667969 30.824219 49.175781 23.332031 40 23.332031 Z M 40 28.332031 C 46.472656 28.332031 51.667969 33.527344 51.667969 40 C 51.667969 46.472656 46.472656 51.667969 40 51.667969 C 33.527344 51.667969 28.332031 46.472656 28.332031 40 C 28.332031 33.527344 33.527344 28.332031 40 28.332031 Z M 40 28.332031 "/>
</g>
</svg>
