<?xml version="1.0" encoding="UTF-8" standalone="no"?>
<svg
   xmlns:dc="http://purl.org/dc/elements/1.1/"
   xmlns:cc="http://creativecommons.org/ns#"
   xmlns:rdf="http://www.w3.org/1999/02/22-rdf-syntax-ns#"
   xmlns:svg="http://www.w3.org/2000/svg"
   xmlns="http://www.w3.org/2000/svg"
   xmlns:sodipodi="http://sodipodi.sourceforge.net/DTD/sodipodi-0.dtd"
   xmlns:inkscape="http://www.inkscape.org/namespaces/inkscape"
   inkscape:version="0.92.3 (2405546, 2018-03-11)"
   sodipodi:docname="logo.svg"
   viewBox="0 0 719 1280"
   height="1280"
   width="719"
   id="svg12"
   version="1.1">
  <metadata
     id="metadata18">
    <rdf:RDF>
      <cc:Work
         rdf:about="">
        <dc:format>image/svg+xml</dc:format>
        <dc:type
           rdf:resource="http://purl.org/dc/dcmitype/StillImage" />
        <dc:title></dc:title>
      </cc:Work>
    </rdf:RDF>
  </metadata>
  <defs
     id="defs16" />
  <sodipodi:namedview
     inkscape:lockguides="false"
     inkscape:guide-bbox="true"
     showguides="true"
     inkscape:current-layer="g20"
     inkscape:window-maximized="1"
     inkscape:window-y="-8"
     inkscape:window-x="-8"
     inkscape:cy="637.21018"
     inkscape:cx="689.49946"
     inkscape:zoom="0.28449999"
     showgrid="false"
     id="namedview14"
     inkscape:window-height="745"
     inkscape:window-width="1366"
     inkscape:pageshadow="2"
     inkscape:pageopacity="0"
     guidetolerance="10"
     gridtolerance="10"
     objecttolerance="10"
     borderopacity="1"
     bordercolor="#666666"
     pagecolor="#ffffff"
     inkscape:document-rotation="0" />
  <g
     inkscape:groupmode="layer"
     id="layer3"
     inkscape:label="Image 3"
     style="display:inline;opacity:1" />
  <g
     style="display:inline"
     inkscape:label="Image 1"
     id="layer1"
     inkscape:groupmode="layer" />
  <g
     style="display:inline"
     id="g20"
     inkscape:label="Image"
     inkscape:groupmode="layer" />
  <g
     style="display:inline"
     inkscape:label="Image 2"
     id="layer2"
     inkscape:groupmode="layer">
    <g
       id="g5207"
       transform="translate(27.339806,-27.339806)">
      <g
         transform="matrix(11.755346,-0.24137966,0.19054386,12.916641,-21.055175,163.38571)"
         id="g251"
         style="fill:#9bc9ff">
        <circle
           cx="32"
           cy="8"
           r="2"
           id="circle223" />
        <circle
           cx="48"
           cy="7"
           r="2"
           id="circle225" />
        <circle
           cx="18"
           cy="5"
           r="2"
           id="circle227" />
        <circle
           cx="40"
           cy="59"
           r="2"
           id="circle229" />
        <circle
           cx="49"
           cy="53"
           r="2"
           id="circle231" />
        <circle
           cx="18"
           cy="59"
           r="2"
           id="circle233" />
        <circle
           cx="55"
           cy="19"
           r="2"
           transform="matrix(0.963,-0.27,0.27,0.963,-3.086,15.529)"
           id="circle235" />
        <circle
           cx="59"
           cy="44"
           r="2"
           transform="matrix(0.963,-0.27,0.27,0.963,-9.677,17.532)"
           id="circle237" />
        <circle
           cx="59"
           cy="28"
           r="2"
           transform="matrix(0.963,-0.27,0.27,0.963,-5.364,16.94)"
           id="circle239" />
        <circle
           cx="9"
           cy="19"
           r="2"
           transform="matrix(0.27,-0.963,0.963,0.27,-11.723,22.545)"
           id="circle241" />
        <circle
           cx="9"
           cy="48"
           r="2"
           transform="matrix(0.207,-0.978,0.978,0.207,-39.824,46.883)"
           id="circle243" />
        <path
           d="M 4.921,36 A 2,2 0 0 0 6.45,32.625 L 6,33 6.45,32.625 A 2,2 0 1 0 4.921,36 Z"
           id="path245"
           inkscape:connector-curvature="0" />
      </g>
      <path
         d="m 680.32255,678.72659 a 34.693964,38.124227 0.7517872 0 0 -15.04845,4.18517 l -27.47556,-29.1531 -110.67658,2.27258 -0.38109,-25.83328 58.77673,-1.2069 -0.38109,-25.83328 -58.77673,1.2069 -0.38108,-25.83328 61.55099,-1.26387 66.31075,-38.10765 a 35.199501,38.679748 0.7517872 1 0 -11.261,-27.62548 34.094373,37.465353 0.7517872 0 0 0.50412,4.67981 l -61.48348,35.33397 -56.00247,1.14994 -0.38109,-25.83329 35.26604,-0.72413 -0.38109,-25.83329 -35.26603,0.72414 -0.38109,-25.83328 51.8881,-1.06545 38.16384,-43.42147 a 34.693964,38.124227 0.7517872 0 0 15.17454,3.56458 35.270041,38.757262 0.7517872 1 0 -35.83767,-38.02578 34.693964,38.124227 0.7517872 0 0 3.77145,16.52547 l -31.38668,35.72378 -42.15467,0.86559 A 58.853942,64.672951 0.7517872 0 0 464.3438,385.98868 l -0.49273,-33.40243 66.09303,-75.18517 a 34.693964,38.124227 0.7517872 0 0 15.16278,3.56482 35.270041,38.757262 0.7517872 1 0 -35.83767,-38.02579 34.693964,38.124227 0.7517872 0 0 3.77145,16.52547 l -72.85826,82.89553 0.65072,44.11033 -23.5107,0.48276 -0.57163,-38.74992 -23.51069,0.48276 0.57164,38.74992 -23.5107,0.48276 -1.36887,-92.79315 a 35.270041,38.757262 0.7517872 1 0 -23.51069,0.48276 l 1.36886,92.79315 -23.51068,0.48276 -0.57164,-38.74993 -23.51069,0.48276 0.57163,38.74993 -23.51069,0.48276 -1.41269,-95.76398 -51.36733,-54.50362 a 34.693964,38.124227 0.7517872 0 0 3.28157,-16.68322 35.270041,38.757262 0.7517872 1 0 -34.69442,39.47406 34.693964,38.124227 0.7517872 0 0 15.04847,-4.18516 l 44.37879,47.07568 1.25492,85.069 a 58.853942,64.672951 0.7517872 0 0 -57.82401,65.7901 l -42.15468,0.86559 -32.42133,-34.41358 a 34.693964,38.124227 0.7517872 0 0 3.28176,-16.6703 35.270041,38.757262 0.7517872 1 0 -34.694414,39.47407 34.693964,38.124227 0.7517872 0 0 15.048454,-4.18517 l 39.42144,41.82836 51.89985,-1.06569 0.38109,25.83328 -74.78752,1.53566 -60.742962,57.63257 a 34.717477,38.150065 0.75178719 0 0 -16.526843,-4.36373 35.270041,38.757262 0.7517872 1 0 35.837671,38.02579 34.940854,38.395528 0.75178719 0 0 -3.008573,-15.02943 l 53.332677,-50.60668 66.27664,-1.36089 0.38109,25.83328 -35.26604,0.72414 0.38109,25.83328 35.26603,-0.72414 0.38109,25.83328 -105.798115,2.17242 0.381088,25.83328 105.798117,-2.17242 0.38108,25.83329 -65.06584,1.33603 -46.222392,79.04094 a 34.893828,38.343851 0.75178719 0 0 -5.12196,-0.46333 35.599228,39.118996 0.7517872 1 0 26.167572,12.22819 l 38.13609,-65.23079 52.48762,-1.07776 a 58.853942,64.672951 0.7517872 0 0 59.72946,63.3763 l 1.25492,85.069 -42.96344,48.86913 a 34.693964,38.124227 0.7517872 0 0 -15.16278,-3.56482 35.270041,38.757262 0.7517872 1 0 35.83768,38.02579 34.693964,38.124227 0.7517872 0 0 -3.77146,-16.52547 l 49.72865,-56.57949 -1.41289,-95.7769 23.5107,-0.48275 1.14326,77.49984 23.5107,-0.48276 -1.14326,-77.49984 23.51068,-0.48276 1.62991,110.48894 72.12604,47.6171 a 35.787335,39.325701 0.75178719 1 0 12.24426,-22.10008 l -61.07073,-40.31141 -1.41878,-96.17731 23.51069,-0.48276 0.57163,38.74992 23.51069,-0.48276 -0.57163,-38.74992 23.5107,-0.48276 1.52434,103.33313 84.45041,-1.73407 a 35.270041,38.757262 0.7517872 1 0 -0.38108,-25.83329 l -60.93972,1.25132 -1.14327,-77.49985 a 58.853942,64.672951 0.7517872 0 0 57.82401,-65.7901 l 100.93141,-2.07249 20.47544,21.73832 a 34.693964,38.124227 0.7517872 0 0 -3.28175,16.67029 35.270041,38.757262 0.7517872 1 0 34.69441,-39.47406 z m -2.66761,-180.83297 a 11.75668,12.919087 0.7517872 1 1 -11.56481,13.15802 11.75668,12.919087 0.7517872 0 1 11.56481,-13.15802 z M 628.91866,382.60937 a 11.75668,12.919087 0.7517872 1 1 -11.56481,13.15802 11.75668,12.919087 0.7517872 0 1 11.56481,-13.15802 z M 544.34471,229.29933 a 11.75668,12.919087 0.7517872 1 1 -11.56481,13.15802 11.75668,12.919087 0.7517872 0 1 11.56481,-13.15802 z m -187.895,16.77872 a 11.75668,12.919087 0.7517872 1 1 -11.5648,13.15802 11.75668,12.919087 0.7517872 0 1 11.5648,-13.15802 z M 179.73843,223.86546 a 11.75668,12.919087 0.7517872 1 1 11.94589,12.67526 11.75668,12.919087 0.7517872 0 1 -11.94589,-12.67526 z M 76.607927,406.87085 A 11.75668,12.919087 0.7517872 1 1 88.553818,419.54611 11.75668,12.919087 0.7517872 0 1 76.607927,406.87085 Z M 44.390591,614.26125 A 11.75668,12.919087 0.7517872 1 1 55.955393,601.10323 11.75668,12.919087 0.7517872 0 1 44.390591,614.26125 Z M 82.324243,794.37008 A 11.75668,12.919087 0.7517872 1 1 93.889046,781.21206 11.75668,12.919087 0.7517872 0 1 82.324243,794.37008 Z M 201.97369,934.03934 a 11.75668,12.919087 0.7517872 1 1 11.5648,-13.15802 11.75668,12.919087 0.7517872 0 1 -11.5648,13.15802 z M 460.21022,902.8957 a 11.75668,12.919087 0.7517872 1 1 -11.56481,13.15802 11.75668,12.919087 0.7517872 0 1 11.56481,-13.15802 z m 104.65485,-79.67226 a 11.75668,12.919087 0.7517872 1 1 -11.56481,13.15802 11.75668,12.919087 0.7517872 0 1 11.56481,-13.15802 z M 503.99236,682.34729 a 35.270041,38.757262 0.7517872 0 1 -34.69442,39.47406 l -211.59622,4.34483 A 35.270041,38.757262 0.7517872 0 1 221.86405,688.1404 l -3.4298,-232.49954 a 35.270041,38.757262 0.7517872 0 1 34.69442,-39.47406 l 211.59623,-4.34484 a 35.270041,38.757262 0.7517872 0 1 35.83767,38.02579 z m 177.09236,48.04587 a 11.75668,12.919087 0.7517872 1 1 11.56481,-13.15803 11.75668,12.919087 0.7517872 0 1 -11.56481,13.15803 z"
         id="path279"
         inkscape:connector-curvature="0"
         style="fill:#1e81ce;stroke-width:12.32418728" />
      <g
         transform="matrix(1.0246255,0,0,1.0137249,-7.6450782,10.670929)"
         id="g5159">
        <path
           style="fill:#1e81ce;stroke-width:12.32418728"
           inkscape:connector-curvature="0"
           id="path253"
           d="m 298.43516,298.95151 23.51068,-0.48276 0.38109,25.83328 -23.51069,0.48276 z" />
        <path
           style="fill:#1e81ce;stroke-width:12.32418728"
           inkscape:connector-curvature="0"
           id="path255"
           d="m 608.64721,602.67502 23.5107,-0.48276 0.38108,25.83329 -23.51069,0.48276 z" />
        <path
           style="fill:#1e81ce;stroke-width:12.32418728"
           inkscape:connector-curvature="0"
           id="path257"
           d="m 400.09968,813.68611 23.51069,-0.48276 0.38108,25.83329 -23.51068,0.48275 z" />
        <path
           style="fill:#1e81ce;stroke-width:12.32418728"
           inkscape:connector-curvature="0"
           id="path259"
           d="m 306.62854,854.36707 23.51069,-0.48276 0.38109,25.83329 -23.5107,0.48276 z" />
        <path
           style="fill:#1e81ce;stroke-width:12.32418728"
           inkscape:connector-curvature="0"
           id="path261"
           d="m 114.16049,561.1464 23.5107,-0.48275 0.38108,25.83328 -23.51069,0.48276 z" />
        <path
           style="fill:#1e81ce;stroke-width:12.32418728"
           inkscape:connector-curvature="0"
           id="path263"
           d="m 392.47792,297.02047 23.5107,-0.48276 0.38108,25.83329 -23.51069,0.48275 z" />
        <path
           style="fill:#1e81ce;stroke-width:12.32418728"
           inkscape:connector-curvature="0"
           id="path265"
           d="m 583.61217,499.82465 23.51069,-0.48275 0.38109,25.83328 -23.5107,0.48276 z" />
        <path
           style="fill:#1e81ce;stroke-width:12.32418728"
           inkscape:connector-curvature="0"
           id="path267"
           d="m 522.93,371.86514 23.51069,-0.48276 0.38108,25.83329 -23.51068,0.48275 z" />
        <path
           style="fill:#1e81ce;stroke-width:12.32418728"
           inkscape:connector-curvature="0"
           id="path269"
           d="m 170.26961,379.10653 23.5107,-0.48276 0.38108,25.83329 -23.51069,0.48275 z" />
        <path
           style="fill:#1e81ce;stroke-width:12.32418728"
           inkscape:connector-curvature="0"
           id="path271"
           d="m 528.26523,733.53109 23.51068,-0.48276 0.38109,25.83328 -23.51068,0.48276 z" />
        <path
           style="fill:#1e81ce;stroke-width:12.32418728"
           inkscape:connector-curvature="0"
           id="path273"
           d="m 175.60484,740.77248 23.51069,-0.48276 0.38109,25.83328 -23.51069,0.48276 z" />
        <path
           id="path1219"
           d="m 496.52905,449.06176 c 0,0 4.38251,-11.29775 3.47206,-41.86471 l -3.37148,-40.96226 c 0,0 -1.8957,-36.19726 -29.61015,-62.23423 0,0 -21.26854,-24.53985 -61.85233,-39.28835 0,0 -36.03875,-11.76605 -83.88914,-1.44777 0,0 -53.61755,7.00152 -80.91907,42.0238 0,0 -26.04141,15.4808 -22.32857,107.56205 0,0 4.77888,52.67003 6.21602,53.70836 0,0 36.16709,-19.28398 45.16486,-18.64601 0,0 -0.85265,-4.73419 -0.85243,-4.73418 0,0 -8.16039,-37.85375 -5.59434,-51.92113 0,0 -0.6059,-44.59365 34.11241,-72.63437 0,0 22.8705,-19.80007 49.43713,-16.64628 0,0 46.95292,3.71921 69.85569,20.39433 0,0 26.84786,14.20598 31.55694,46.82672 0,0 5.45833,30.29292 3.19111,45.3008 0,0 0.33756,14.19216 -5.2156,22.17287 0,0 43.63778,7.74568 50.62689,12.39036 z"
           style="display:inline;fill:#aaeeff;fill-opacity:1;stroke:#000000;stroke-width:1.07286429px;stroke-linecap:butt;stroke-linejoin:miter;stroke-opacity:1"
           inkscape:connector-curvature="0" />
        <path
           style="display:inline;fill:#aaeeff;stroke:#000000;stroke-width:1.05321944px;stroke-linecap:butt;stroke-linejoin:miter;stroke-opacity:1"
           d="m 403.93483,373.35596 c -15.33821,-0.96272 -25.59771,-0.74207 -25.59771,-0.74207 l -9.47443,-0.4727 c -18.10244,-2.87505 -54.40617,-0.58278 -54.40617,-0.58278 -35.06847,-1.39093 -86.29932,18.23484 -86.29932,18.23484 -47.90991,21.96102 -58.28986,49.68844 -58.28986,49.68844 -8.24317,11.05187 -10.1249,35.42552 -10.1249,35.42552 -0.0947,0.99711 -0.54364,25.70591 -0.54364,25.70587 l 1.83736,30.81386 2.59936,32.11864 c -0.0735,0.7755 4.42414,19.88357 4.42414,19.88357 l 8.18906,29.19611 c -0.042,0.44307 8.49902,27.48181 8.49902,27.48181 5.24342,15.68883 8.48319,14.29954 8.48319,14.29954 -0.25985,1.66951 -3.92277,6.32641 -3.92277,6.32641 -11.44064,18.51982 1.21139,46.42616 1.21139,46.42616 10.09468,19.00579 39.13552,30.95747 39.13552,30.95747 22.90491,8.26075 34.56923,18.3371 34.56923,18.3371 14.53607,10.132 16.10608,34.65307 16.10608,34.65307 3.10511,18.85532 2.60706,36.7031 2.60706,36.7031 0.3875,21.83412 -1.27412,28.61078 -1.27412,28.61078 12.16296,8.5537 17.41924,10.07671 17.41924,10.07671 1.49008,2.03895 51.4807,10.1949 51.4807,10.1949 l 12.6116,-0.80517 c 4.79857,0.3074 8.47513,-0.7456 11.44321,-0.929 7.5122,-0.46421 9.87172,-0.95426 9.87172,-0.95426 18.2895,-0.0204 31.0413,-5.69861 31.0413,-5.69861 8.01674,-3.64938 6.96137,-5.72896 6.96137,-5.72896 -0.64089,-3.14561 1.69683,-28.99711 1.69683,-28.99711 -1.24111,-6.27436 -0.24956,-35.77341 -0.24956,-35.77341 1.93696,-30.3298 33.75802,-40.68154 33.75802,-40.68154 20.47226,-6.23549 38.46833,-17.18818 38.46833,-17.18818 6.50102,-2.81849 11.95441,-9.38502 11.95441,-9.38502 8.9553,-11.06917 11.57494,-26.30986 11.57494,-26.30986 2.33817,-6.49336 1.90661,-20.92583 1.90661,-20.92583 -0.98037,-10.29411 -5.4282,-13.33425 -5.4282,-13.33425 -2.29455,-3.12622 -5.32563,-4.65057 -7.73211,-5.40981 l 0.83557,0.15801 c 2.4901,-0.66361 8.57993,-5.06006 8.57993,-5.06006 2.9172,-2.28648 0.61613,-3.21463 0.61613,-3.21463 l -1.1135,-0.15773 c -1.33133,-1.1353 0.48868,-1.07214 0.48868,-1.07214 l 0.88581,0.80816 1.6161,1.39186 c 1.45743,-0.19405 4.82281,-2.99763 4.82281,-2.99766 13.14488,-24.21699 17.4678,-37.10307 17.4678,-37.10307 0.49387,-5.20715 5.70381,-20.46593 5.70381,-20.46593 1.00361,-1.24433 1.3605,-2.66297 1.3605,-2.66297 l 1.38079,-2.88617 c 5.33575,-14.24111 8.11232,-48.18425 8.11232,-48.18425 3.65818,-22.23068 -3.08303,-56.20542 -3.08303,-56.20542 -1.87907,-29.49941 -31.8388,-83.47458 -32.37739,-75.08152 -27.73545,-28.52005 -86.0591,-36.36395 -119.8032,-38.48182 z m 121.47818,148.19102 c 6.92349,25.91397 0.75364,53.80869 0.75364,53.80869 4.18553,-31.14546 0.51663,-48.9218 -0.75364,-53.80869 z m -328.41403,-0.88447 c 0.73144,7.40141 2.66977,14.50845 2.66977,14.50845 l 2.07758,14.54574 c -1.68534,-8.75145 -3.62187,-16.93205 -3.62187,-16.93205 -0.79815,-4.64518 -1.10564,-8.67941 -1.12548,-12.12214 z m 320.78732,64.9622 c -6.40953,3.9261 -12.94764,2.92891 -12.94764,2.92891 l -1.97127,0.15467 c 3.18586,-0.27453 5.28812,-0.46601 5.28812,-0.46601 4.04611,-0.38614 7.18758,-1.36324 9.63079,-2.61757 z m -313.62803,-19.00192 0.28682,2.01109 c -0.0189,-0.004 -0.30797,-0.0924 -0.30797,-0.0924 0.0495,0.0228 0.22008,0.0756 0.3109,0.1089 l 2.34627,16.43409 c 0.1714,6.00268 -0.10841,11.95205 -0.6821,17.70179 1.43571,-19.89679 -1.97506,-34.24492 -1.97506,-34.24492 0.0416,-0.54686 0.0429,-1.20271 0.0209,-1.91873 z m 9.5417,4.7212 c 1.08508,0.29952 2.91703,0.80991 2.91703,0.80991 0.0478,0.0303 0.18903,0.0805 0.30186,0.12493 -1.20218,-0.34271 -2.0823,-0.60582 -3.21889,-0.93485 z m 273.5869,18.60783 c -2.741,0.23525 -5.17265,0.38963 -7.27009,0.47572 2.23117,-0.12645 4.68256,-0.28842 7.27009,-0.47572 z M 223.03938,573.98344 c 2.76349,0.70859 5.85478,1.47375 9.03445,2.2197 -1.63621,-0.25922 -5.09075,-1.14269 -9.03445,-2.2197 z m 242.53445,16.47281 c -5.27389,0.0121 -10.04839,-0.27957 -14.29707,-0.71789 5.3092,0.41254 10.45329,0.61651 14.29707,0.71789 z m -204.9644,-12.37218 c 1.72286,0.1133 3.2073,0.27272 4.59367,0.44839 -2.1864,-0.25639 -3.74839,-0.31665 -3.7484,-0.31665 -0.42726,-0.0681 -0.90455,-0.10664 -1.36145,-0.15756 0.16523,0.009 0.35404,0.0147 0.51623,0.025 z m 11.76491,1.85538 c 4.19215,1.24953 5.15781,2.59311 5.15781,2.59311 -1.22558,-1.13794 -3.1102,-1.97265 -5.15781,-2.59311 z m 246.78139,30.23824 c -0.41357,3.5295 -0.65816,6.73234 -0.79216,9.50933 -0.1024,-2.16186 0.22429,-5.55328 0.79216,-9.50933 z m -0.38729,27.71323 c 0.66343,5.20654 1.73521,11.15685 1.73521,11.15685 0.38007,1.13668 0.38452,2.19636 0.20869,3.13493 0.15359,-1.66825 -0.20869,-3.13493 -0.20869,-3.13493 -0.89166,-2.99842 -1.42087,-7.04761 -1.73521,-11.15685 z m -317.37246,-8.69374 c -1.14833,4.55037 -2.34429,8.66497 -3.46235,12.17475 1.13737,-4.04448 1.97514,-7.44343 1.97514,-7.44343 0.54038,-1.58545 1.02622,-3.16162 1.48721,-4.73132 z m 4.74828,19.75451 c -3.37762,2.16806 -6.52707,3.50998 -8.87663,4.32563 3.83971,-1.61093 8.87663,-4.32563 8.87663,-4.32563 z"
           id="path1209"
           inkscape:connector-curvature="0"
           sodipodi:nodetypes="ccccccccccccccccccccccccscccccccccccccccccccccccccccsccccccccccccccccccccccccccccccccccccccccccccccccccccccccccccc" />
        <path
           id="path26"
           d="m 292.5218,676.42316 c 0,0 39.33651,-30.79859 37.93643,-65.61838 0,0 -0.3616,-17.44391 -24.85438,-16.23061 l -62.15411,0.62877 c 0,0 -14.15173,-4.82049 -16.32321,35.35263 0,0 -7.21342,30.69121 2.74812,48.41877 0,0 12.17909,12.51032 24.85737,9.36307 0,0 6.82935,-2.72368 17.54494,-3.13859 0,0 13.69951,-1.28412 20.24484,-8.77566 z"
           style="display:inline;fill:#2a7fff;stroke:#000000;stroke-width:1.09296513px;stroke-linecap:butt;stroke-linejoin:miter;stroke-opacity:1"
           inkscape:connector-curvature="0" />
        <path
           id="path28"
           d="m 489.96409,608.23047 c 0,0 4.01685,8.5646 -0.33229,33.84624 0,0 -0.004,19.19627 -17.89278,44.01544 0,0 -4.27305,-1.45737 -15.55791,3.96071 0,0 -29.44605,2.24832 -39.06533,-17.39032 0,0 -28.35871,-27.06911 -27.17867,-38.98766 0,0 -12.7502,-27.01417 9.14173,-31.08511 0,0 46.10497,1.05917 52.46436,1.80397 0,0 34.3772,-1.8939 38.42089,3.83673 z"
           style="display:inline;fill:#2a7fff;stroke:#000000;stroke-width:1.03773403px;stroke-linecap:butt;stroke-linejoin:miter;stroke-opacity:1"
           inkscape:connector-curvature="0"
           sodipodi:nodetypes="ccccccccc" />
        <path
           id="path30"
           d="m 421.60195,812.9712 v 0 c 0,0 -50.08816,16.4366 -139.04938,-5.59156 l 0.0169,10.51042 c 0,0 7.19508,9.36056 6.60468,16.51047 0,0 -2.90407,12.56975 -3.78676,24.74376 0,0 7.65981,7.50023 29.68837,12.93415 0,0 16.17704,3.761 42.08995,2.68638 0,0 40.20919,-1.97061 46.79818,-3.77264 0,0 12.99018,-1.46936 18.16376,-6.93847 0,0 -4.12879,6.14235 -2.26588,-14.93281 0.42419,-4.79895 -1.18826,-9.13506 -1.05781,-10.26151 l 0.97506,0.16232 c 0,0 -2.34546,6.85954 -0.97506,-0.16232 1.00883,-5.16922 2.51128,-24.44494 2.79791,-25.88819 z"
           style="display:inline;fill:none;stroke:#000000;stroke-width:0.96549463px;stroke-linecap:butt;stroke-linejoin:miter;stroke-opacity:1"
           inkscape:transform-center-x="-49.761193"
           inkscape:transform-center-y="2.2627596"
           inkscape:connector-curvature="0"
           sodipodi:nodetypes="ccccccccccsccsc" />
        <path
           sodipodi:nodetypes="csccccc"
           id="path60"
           d="m 296.76015,808.44576 c 0,0 -7.25678,-0.21519 -12.33369,-1.23634 -2.40451,-0.48363 -2.22025,3.21135 -3.50638,2.41594 2.03314,2.12547 2.85955,14.21578 3.90089,23.6523 0,0 11.44257,1.11467 12.82863,2.53596 0,0 -1.669,-24.15947 -0.88941,-27.36788 z"
           style="display:inline;fill:#ffffff;stroke:#000000;stroke-width:0.96549463px;stroke-linecap:butt;stroke-linejoin:miter;stroke-opacity:1"
           inkscape:transform-center-x="9.2450262"
           inkscape:transform-center-y="-19.889195"
           inkscape:connector-curvature="0" />
        <path
           sodipodi:nodetypes="cccccsc"
           inkscape:connector-curvature="0"
           id="path32"
           d="m 419.7791,839.02171 c 0,0 -9.29692,3.99231 -17.22946,2.81956 l -1.88532,0.24352 c 0,0 2.64033,-25.43214 -0.56716,-27.54331 l 21.50479,-1.57028 c 0,0 -2.59754,21.29987 -2.16489,26.03197 0.52476,5.73958 -0.70347,-3.61089 0.34204,0.0185 z"
           style="display:inline;fill:#ffffff;stroke:#000000;stroke-width:0.96549463px;stroke-linecap:butt;stroke-linejoin:miter;stroke-opacity:1"
           inkscape:transform-center-x="-108.73133"
           inkscape:transform-center-y="-11.770591" />
        <path
           sodipodi:nodetypes="ccccsccc"
           inkscape:connector-curvature="0"
           id="path34"
           d="m 402.50426,871.18562 c 0,0 0.65158,-26.65119 -1.83994,-29.10083 0,0 3.45879,-0.51239 5.94631,-0.11217 0,0 4.47587,-0.0672 12.82643,-2.96945 0,0 2.02804,17.81885 3.18192,25.33925 0.4945,3.22297 -0.86453,-2.93651 -0.49125,-0.28871 0,0 1.27941,-0.0946 -2.72111,2.42292 0,0 -10.62993,4.22668 -16.90236,4.70899 z"
           style="display:inline;fill:#ffffff;stroke:#000000;stroke-width:0.96549463px;stroke-linecap:butt;stroke-linejoin:miter;stroke-opacity:1"
           inkscape:transform-center-x="-109.1765"
           inkscape:transform-center-y="20.193745" />
        <path
           sodipodi:nodetypes="ccccccc"
           inkscape:connector-curvature="0"
           id="path38"
           d="m 400.66432,842.08479 c 0,0 -7.43575,1.67496 -14.95962,1.81201 l -1.75731,-0.32963 c 0,0 2.33624,27.11142 0.93226,29.24095 0,0 13.82228,-0.43549 19.08432,-1.81594 0,0 1.06823,-25.33881 -1.41433,-29.15091 z"
           style="display:inline;fill:#ffffff;stroke:#000000;stroke-width:0.96549463px;stroke-linecap:butt;stroke-linejoin:miter;stroke-opacity:1"
           inkscape:transform-center-x="-91.900128"
           inkscape:transform-center-y="22.96102" />
        <path
           sodipodi:nodetypes="cscccc"
           inkscape:connector-curvature="0"
           id="path40"
           d="m 402.54964,841.84127 c 0,0 1.30533,-6.31888 1.55645,-13.0747 0.23342,-6.27935 0.20648,-13.0013 -1.39649,-14.50062 0,0 -18.15775,2.05411 -19.63416,1.80208 0,0 2.22927,5.26798 0.87223,27.49915 0,0 9.52193,0.77361 18.60197,-1.72591 z"
           style="display:inline;fill:#ffffff;stroke:#000000;stroke-width:0.96549463px;stroke-linecap:butt;stroke-linejoin:miter;stroke-opacity:1"
           inkscape:transform-center-x="-91.088642"
           inkscape:transform-center-y="-8.9375242" />
        <path
           inkscape:connector-curvature="0"
           id="path42"
           d="m 383.94767,843.56718 c 0,0 -22.02088,1.99819 -27.43277,0.29691 0,0 -0.53485,-18.83258 1.33578,-27.74812 0,0 23.21758,0.77819 25.22503,-0.0478 0,0 3.54914,14.62948 0.87223,27.49914 z"
           style="display:inline;fill:#ffffff;stroke:#000000;stroke-width:0.96549463px;stroke-linecap:butt;stroke-linejoin:miter;stroke-opacity:1"
           inkscape:transform-center-x="-70.504568"
           inkscape:transform-center-y="-7.6380826"
           sodipodi:nodetypes="cccccc" />
        <path
           inkscape:connector-curvature="0"
           id="path44"
           d="m 383.94739,843.56717 c 0,0 -22.23365,1.7198 -27.43276,0.29691 0,0 1.42189,29.52025 0.27801,30.88159 0,0 26.45414,-1.46254 28.08713,-1.93755 0,0 1.71505,-5.43145 -0.93224,-29.24095 z"
           style="display:inline;fill:#ffffff;stroke:#000000;stroke-width:0.96549463px;stroke-linecap:butt;stroke-linejoin:miter;stroke-opacity:1"
           inkscape:transform-center-x="-70.765284"
           inkscape:transform-center-y="24.889115"
           sodipodi:nodetypes="cccccc" />
        <path
           sodipodi:nodetypes="ccccc"
           inkscape:connector-curvature="0"
           id="path48"
           d="m 360.3904,816.31079 c 0,0 -26.59924,-1.66581 -28.69226,-2.16621 0,0 0.95368,23.34433 -0.12963,27.35454 0,0 20.15069,2.3076 27.48611,2.36496 0,0 0.0294,-25.16705 1.33578,-27.55329 z"
           style="display:inline;fill:#ffffff;stroke:#000000;stroke-width:0.96549463px;stroke-linecap:butt;stroke-linejoin:miter;stroke-opacity:1"
           inkscape:transform-center-x="-45.868435"
           inkscape:transform-center-y="-9.1093554" />
        <path
           sodipodi:nodetypes="cccccsc"
           inkscape:connector-curvature="0"
           id="path50"
           d="m 359.05462,843.86408 c 0,0 -22.75733,-1.29265 -27.48611,-2.36496 0,0 0.66419,31.70902 -0.25829,32.75583 v 0 c 0,0 24.46649,0.87838 27.79152,0.29589 0,0 -0.95185,-6.29757 -1.19816,-16.77856 -0.0959,-4.0807 1.71331,-8.76603 1.15104,-13.9082 z"
           style="display:inline;fill:#ffffff;stroke:#000000;stroke-width:0.96549463px;stroke-linecap:butt;stroke-linejoin:miter;stroke-opacity:1"
           inkscape:transform-center-x="-45.572602"
           inkscape:transform-center-y="23.890628" />
        <path
           sodipodi:nodetypes="ccccscc"
           inkscape:connector-curvature="0"
           id="path52"
           d="m 334.33935,842.084 c 0,0 -21.5125,-4.00999 -22.30108,-3.60661 0,0 -1.71966,-22.76138 -0.56219,-27.24785 l 23.91661,3.3047 c 0,0 -0.93454,5.04049 -1.10618,12.25909 -0.14513,6.10416 0.51844,14.48749 0.0529,15.29067 z"
           style="display:inline;fill:#ffffff;stroke:#000000;stroke-width:0.96549463px;stroke-linecap:butt;stroke-linejoin:miter;stroke-opacity:1"
           inkscape:transform-center-x="-23.9271"
           inkscape:transform-center-y="-12.086125" />
        <path
           sodipodi:nodetypes="cccccscc"
           inkscape:connector-curvature="0"
           id="path54"
           d="m 331.56851,841.49912 c 0,0 -18.3575,-3.34718 -19.53024,-3.02173 0,0 1.74347,31.26981 0.0358,32.62689 0,0 -1.10929,0.0969 0,0 l 21.91957,3.57551 c 0,0 -0.25362,-5.87973 -0.28574,-16.71224 -0.0136,-4.58854 1.00136,-10.08579 0.6315,-15.88355 z"
           style="display:inline;fill:#ffffff;stroke:#000000;stroke-width:0.96549463px;stroke-linecap:butt;stroke-linejoin:miter;stroke-opacity:1"
           inkscape:transform-center-x="-24.400614"
           inkscape:transform-center-y="22.079723" />
        <path
           sodipodi:nodetypes="ccccscc"
           inkscape:connector-curvature="0"
           id="path56"
           d="m 312.03827,838.47739 c 0,0 -14.26492,-3.02762 -14.38871,-2.66375 0,0 -1.85576,-25.10936 -0.88941,-27.36788 0,0 16.73258,3.1682 17.94869,3.17344 0,0 -0.94305,6.10477 -0.69169,14.98521 0.1054,3.72357 -0.12224,7.41919 0.33025,12.06781 z"
           style="display:inline;fill:#ffffff;stroke:#000000;stroke-width:0.96549463px;stroke-linecap:butt;stroke-linejoin:miter;stroke-opacity:1"
           inkscape:transform-center-x="-7.5198419"
           inkscape:transform-center-y="-15.35917" />
        <path
           sodipodi:nodetypes="cccsccc"
           inkscape:connector-curvature="0"
           id="path58"
           d="m 297.64956,835.81364 c 0,0 3.08098,27.91973 1.433,30.68377 0,0 14.01213,5.32667 15.99329,5.58103 0,0 -0.20593,-1.44521 -0.94681,-17.80886 -0.18836,-4.16078 0.66856,-9.28606 0.21836,-15.59736 0,0 -14.92708,-3.06886 -16.6978,-2.85858 z"
           style="display:inline;fill:#ffffff;stroke:#000000;stroke-width:0.96549463px;stroke-linecap:butt;stroke-linejoin:miter;stroke-opacity:1"
           inkscape:transform-center-x="-8.5459237"
           inkscape:transform-center-y="18.458657" />
        <path
           inkscape:connector-curvature="0"
           id="path62"
           d="m 297.64956,835.81364 c 0,0 -0.65743,-2.76314 -12.82859,-2.53598 0,0 1.88377,23.07575 0.56648,25.86663 0,0 10.82865,7.12042 13.69511,7.35312 0,0 1.32846,-6.1552 -1.433,-30.68377 z"
           style="display:inline;fill:#ffffff;stroke:#000000;stroke-width:0.96549463px;stroke-linecap:butt;stroke-linejoin:miter;stroke-opacity:1"
           inkscape:transform-center-x="6.0610812"
           inkscape:transform-center-y="14.807966"
           sodipodi:nodetypes="ccccc" />
        <path
           id="path78"
           d="m 364.70197,716.7293 14.79374,56.10112 -53.55349,0.77205 11.24329,-56.87317 c 0,0 -12.58335,-12.29279 1.43412,-23.02903 0,0 7.36819,-5.02154 16.3184,-3.1558 0,0 11.24328,1.60841 14.86779,11.13016 0,0 3.55036,7.84901 -5.10385,15.05467 z"
           style="display:inline;fill:#2a7fff;stroke:#000000;stroke-width:0.65608358px;stroke-linecap:butt;stroke-linejoin:miter;stroke-opacity:1"
           inkscape:connector-curvature="0" />
      </g>
    </g>
  </g>
</svg>
