<?xml version="1.0"?>
<svg xmlns="http://www.w3.org/2000/svg" xmlns:xlink="http://www.w3.org/1999/xlink" xmlns:svgjs="http://svgjs.com/svgjs" version="1.1" width="512" height="512" x="0" y="0" viewBox="0 0 512 512" style="enable-background:new 0 0 512 512" xml:space="preserve" class=""><g>
<g xmlns="http://www.w3.org/2000/svg">
	<g>
		<path d="M444.099,392.996c-3.907-3.902-10.237-3.897-14.141,0.011l-11.467,11.484l-20.359-20.675    c22.971-25.681,35.697-58.424,36.019-93.196c0.077-8.334-0.562-16.564-1.885-24.622H502c5.521,0,9.999-4.478,9.999-9.999    c0-5.521-4.478-9.999-9.999-9.999h-74.535c-2.037-6.384-4.532-12.608-7.458-18.635V50.019c0-27.567-22.428-49.995-49.995-49.995    H50.044c-27.567,0-49.995,22.428-49.995,49.995v199.98c0,27.567,22.428,49.995,49.995,49.995h100.543    c2.468,33.425,16.513,64.589,40.259,88.778c26.567,27.063,62.086,42.162,100.011,42.514c0.451,0.004,0.9,0.006,1.352,0.006    c33.875,0,65.982-11.809,91.6-33.519l20.55,20.87l-11.401,11.418c-1.874,1.876-2.926,4.421-2.924,7.072    c0.002,2.652,1.058,5.193,2.935,7.067l57.281,57.192c6.832,6.825,15.911,10.583,25.568,10.583c0.007,0,0.016,0,0.023,0    c9.665-0.006,18.75-3.776,25.579-10.616c14.094-14.115,14.079-37.065-0.034-51.163L444.099,392.996z M388.646,28.646    c0.39-0.39,0.729-0.809,1.042-1.242c6.317,5.503,10.323,13.598,10.323,22.615v146.923h-0.001    c-2.084-2.427-4.251-4.799-6.513-7.103c-26.567-27.063-62.086-42.162-100.011-42.514c-8.661-0.08-17.21,0.621-25.573,2.053    L388.646,28.646z M50.045,20.022h318.942L225.202,163.809c-0.208,0.208-0.434,0.387-0.648,0.586    c-2.809,1.526-5.569,3.15-8.278,4.87c-7.807,2.539-16.734,0.729-22.941-5.477L48.68,20.057    C49.133,20.037,49.587,20.022,50.045,20.022z M32.256,274.134c-7.399-5.468-12.208-14.249-12.208-24.135V50.019    c0-8.341,3.425-15.894,8.938-21.337L153.299,152.2L32.256,274.134z M150.495,279.996H54.614l112.872-113.702l11.731,11.656    c4.115,4.115,8.926,7.274,14.165,9.384c-0.224,0.217-0.452,0.428-0.675,0.647C167.553,212.672,152.744,245.096,150.495,279.996z     M377.628,376.36c-23.252,22.826-54.002,35.237-86.585,34.929c-32.584-0.301-63.099-13.273-85.925-36.524    c-22.826-23.253-35.229-54.003-34.929-86.586s13.273-63.099,36.524-85.925c5.709-5.604,11.872-10.58,18.401-14.895    c3.895-1.562,7.551-3.704,10.864-6.387c17.154-8.925,36.301-13.653,56.16-13.653c0.385,0,0.774,0.002,1.16,0.006    c32.584,0.301,63.099,13.273,85.925,36.524c8.765,8.929,15.986,18.966,21.549,29.785c0.179,0.431,0.394,0.842,0.629,1.24    c8.512,17.037,12.932,35.966,12.751,55.561C413.852,323.018,400.88,353.533,377.628,376.36z M487.27,487.229    c-3.055,3.06-7.118,4.746-11.441,4.749c-0.003,0-0.007,0-0.01,0c-4.32,0-8.381-1.682-11.437-4.734    c0-0.001-0.001-0.002-0.002-0.002l-50.205-50.128l22.869-22.903l50.212,50.136C493.568,470.651,493.574,480.916,487.27,487.229z" fill="#ffffff" data-original="#000000" style="" class=""/>
	</g>
</g>
<g xmlns="http://www.w3.org/2000/svg">
	<g>
		<path d="M233.737,346.764c-3.841-3.969-10.201-4.045-14.17-0.203c-3.969,3.84-4.072,10.17-0.231,14.139    c1.961,2.027,4.572,3.046,7.186,3.046c2.504,0,5.012-0.936,6.952-2.814l0.061-0.059    C237.504,357.033,237.577,350.732,233.737,346.764z" fill="#ffffff" data-original="#000000" style="" class=""/>
	</g>
</g>
<g xmlns="http://www.w3.org/2000/svg">
	<g>
		<path d="M364.29,217.186c-19.257-19.256-44.86-29.861-72.093-29.861s-52.836,10.605-72.093,29.861    c-27.177,27.178-36.737,66.804-24.951,103.415c1.691,5.256,7.322,8.146,12.582,6.453c5.256-1.692,8.145-7.325,6.453-12.582    c-9.478-29.437-1.792-61.297,20.057-83.145c15.478-15.479,36.059-24.005,57.951-24.005c21.892,0,42.473,8.524,57.951,24.005    c15.479,15.478,24.006,36.059,24.006,57.951c0,1.58-0.057,3.151-0.146,4.716H253.25c-5.521,0-9.999,4.478-9.999,9.999    c0,5.521,4.478,9.999,9.999,9.999h117.113c-3.907,12.406-10.754,23.777-20.215,33.237c-23.278,23.279-58.053,30.378-88.599,18.084    c-5.12-2.065-10.947,0.418-13.009,5.542c-2.063,5.122,0.419,10.947,5.542,13.009c12.378,4.983,25.31,7.403,38.128,7.403    c26.527,0,52.557-10.376,72.079-29.897c19.257-19.257,29.862-44.859,29.862-72.093    C394.152,262.046,383.547,236.442,364.29,217.186z" fill="#ffffff" data-original="#000000" style="" class=""/>
	</g>
</g>
<g xmlns="http://www.w3.org/2000/svg">
	<g>
		<path d="M85.882,339.047C38.526,339.047,0,377.573,0,424.929v1.162c0,47.355,38.526,85.882,85.882,85.882h55.797    c5.521,0,9.999-4.478,9.999-9.999c0-5.521-4.478-9.999-9.999-9.999H85.882c-36.328,0-65.884-29.556-65.884-65.884v-1.162    c0-36.328,29.556-65.884,65.884-65.884s65.884,29.556,65.884,65.884v18.421c0,6.522-5.307,11.83-11.83,11.83    s-11.83-5.307-11.83-11.83v-20.808c0-25.168-20.476-45.643-45.643-45.643c-26.435,0-47.943,21.508-47.943,47.944    c0,26.435,21.508,47.943,47.943,47.943h14.301c5.521,0,9.999-4.478,9.999-9.999c0-5.521-4.478-9.999-9.999-9.999H82.463    c-15.409,0-27.945-12.536-27.945-27.945s12.536-27.946,27.945-27.946c14.142,0,25.645,11.505,25.645,25.645v20.808    c0,17.55,14.278,31.828,31.828,31.828s31.828-14.278,31.828-31.828v-18.421C171.764,377.573,133.238,339.047,85.882,339.047z" fill="#ffffff" data-original="#000000" style="" class=""/>
	</g>
</g>
<g xmlns="http://www.w3.org/2000/svg">
	<g>
		<path d="M335.017,245.999h-32.24c-5.521,0-9.999,4.478-9.999,9.999c0,5.521,4.478,9.999,9.999,9.999h32.24    c5.521,0,9.999-4.478,9.999-9.999C345.016,250.477,340.538,245.999,335.017,245.999z" fill="#ffffff" data-original="#000000" style="" class=""/>
	</g>
</g>
<g xmlns="http://www.w3.org/2000/svg">
	<g>
		<path d="M502.001,293.995h-26.998c-5.521,0-9.999,4.478-9.999,9.999c0,5.521,4.478,9.999,9.999,9.999h26.998    c5.521,0,9.999-4.478,9.999-9.999C512,298.472,507.522,293.995,502.001,293.995z" fill="#ffffff" data-original="#000000" style="" class=""/>
	</g>
</g>
<g xmlns="http://www.w3.org/2000/svg">
</g>
<g xmlns="http://www.w3.org/2000/svg">
</g>
<g xmlns="http://www.w3.org/2000/svg">
</g>
<g xmlns="http://www.w3.org/2000/svg">
</g>
<g xmlns="http://www.w3.org/2000/svg">
</g>
<g xmlns="http://www.w3.org/2000/svg">
</g>
<g xmlns="http://www.w3.org/2000/svg">
</g>
<g xmlns="http://www.w3.org/2000/svg">
</g>
<g xmlns="http://www.w3.org/2000/svg">
</g>
<g xmlns="http://www.w3.org/2000/svg">
</g>
<g xmlns="http://www.w3.org/2000/svg">
</g>
<g xmlns="http://www.w3.org/2000/svg">
</g>
<g xmlns="http://www.w3.org/2000/svg">
</g>
<g xmlns="http://www.w3.org/2000/svg">
</g>
<g xmlns="http://www.w3.org/2000/svg">
</g>
</g></svg>
