<?xml version="1.0" encoding="UTF-8"?>
<svg xmlns="http://www.w3.org/2000/svg" xmlns:xlink="http://www.w3.org/1999/xlink" width="50pt" height="50pt" viewBox="0 0 50 50" version="1.1">
<g id="surface21041995">
<path style=" stroke:none;fill-rule:nonzero;fill:rgb(100%,100%,100%);fill-opacity:1;" d="M 45.417969 0 L 4.582031 0 C 2.082031 0 0 2.082031 0 4.582031 L 0 45.417969 C 0 47.917969 2.082031 50 4.582031 50 L 45.417969 50 C 47.917969 50 50 47.917969 50 45.417969 L 50 4.582031 C 50 2.082031 47.917969 0 45.417969 0 Z M 14.582031 41.667969 L 6.25 41.667969 L 6.25 18.75 L 14.582031 18.75 Z M 10.417969 16.039062 C 7.917969 16.039062 6.25 14.371094 6.25 12.289062 C 6.25 10 7.917969 8.332031 10.417969 8.332031 C 12.914062 8.332031 14.582031 10 14.582031 12.085938 C 14.582031 14.371094 12.914062 16.039062 10.417969 16.039062 Z M 43.75 41.667969 L 35.417969 41.667969 L 35.417969 29.167969 C 35.417969 25.832031 33.121094 25 32.503906 25 C 31.875 25 29.167969 25.414062 29.167969 29.167969 C 29.167969 29.582031 29.167969 41.667969 29.167969 41.667969 L 20.832031 41.667969 L 20.832031 18.75 L 29.167969 18.75 L 29.167969 22.085938 C 30.417969 20.207031 32.503906 18.75 36.457031 18.75 C 40.414062 18.75 43.75 21.875 43.75 29.167969 Z M 43.75 41.667969 "/>
</g>
</svg>
